<?xml version="1.0" standalone="no"?>
<!DOCTYPE svg PUBLIC "-//W3C//DTD SVG 20010904//EN"
 "http://www.w3.org/TR/2001/REC-SVG-20010904/DTD/svg10.dtd">
<svg version="1.0" xmlns="http://www.w3.org/2000/svg"
 width="1000.000000pt" height="1000.000000pt" viewBox="0 0 1000.000000 1000.000000"
 preserveAspectRatio="xMidYMid meet">
<metadata>
Created by potrace 1.14, written by Peter Selinger 2001-2017
</metadata>
<g transform="translate(0.000000,1000.000000) scale(0.100000,-0.100000)"
fill="#000000" stroke="none">
<path d="M4587 9984 c-854 -84 -1540 -312 -2252 -751 -204 -126 -392 -265
-605 -447 -119 -102 -408 -388 -489 -486 -30 -36 -60 -69 -66 -75 -6 -5 -51
-62 -101 -125 -272 -347 -490 -711 -655 -1095 -33 -77 -64 -149 -69 -160 -117
-272 -262 -825 -304 -1165 -3 -25 -10 -79 -15 -121 -33 -258 -36 -834 -6
-1074 43 -341 80 -538 155 -815 36 -135 125 -406 154 -475 8 -16 26 -61 42
-100 183 -455 503 -982 809 -1330 29 -33 65 -76 81 -95 49 -59 334 -341 437
-432 224 -198 541 -425 788 -565 219 -124 541 -279 692 -333 29 -10 77 -28
107 -40 222 -85 583 -181 850 -226 14 -3 48 -9 75 -14 28 -5 75 -12 105 -16
30 -3 89 -9 130 -14 257 -32 797 -34 1050 -5 19 2 60 6 90 9 109 12 147 17
280 41 366 64 794 192 1105 330 132 59 155 69 275 129 311 155 571 321 855
545 169 133 247 203 426 381 392 391 673 777 933 1284 43 83 150 321 181 401
48 123 106 291 135 385 12 41 26 86 30 100 37 110 127 536 144 685 2 22 8 67
12 100 3 33 8 68 10 78 18 103 26 675 11 877 -8 117 -43 403 -57 465 -5 22
-12 60 -15 85 -27 187 -174 708 -249 884 -7 17 -42 99 -77 181 -101 239 -215
454 -363 688 -44 71 -85 136 -91 145 -5 9 -12 19 -15 22 -4 3 -32 42 -64 87
-31 46 -63 89 -69 96 -7 7 -34 41 -62 77 -53 69 -54 71 -166 200 -103 119
-375 389 -494 490 -295 252 -512 402 -850 590 -52 29 -318 162 -370 185 -101
45 -139 61 -220 92 -448 172 -902 280 -1335 319 -41 3 -106 10 -145 14 -119
12 -611 8 -758 -6z"/>
</g>
</svg>
